<svg xmlns="http://www.w3.org/2000/svg" xmlns:xlink="http://www.w3.org/1999/xlink" width="100" height="100" viewBox="0 0 100 100"><defs><linearGradient id="a" x1="410.62" y1="901.04" x2="507.62" y2="984.49" gradientTransform="translate(-232.87 -508.93) scale(0.56 0.57)" gradientUnits="userSpaceOnUse"><stop offset="0" stop-color="#5a9fd4"/><stop offset="1" stop-color="#306998"/></linearGradient><linearGradient id="b" x1="545.06" y1="1035.04" x2="510.42" y2="986.03" gradientTransform="translate(-232.87 -508.93) scale(0.56 0.57)" gradientUnits="userSpaceOnUse"><stop offset="0" stop-color="#ffd43b"/><stop offset="1" stop-color="#ffe873"/></linearGradient></defs><title>Artboard 1</title><path d="M49.4,0A66.26,66.26,0,0,0,38,1C27.9,2.8,26.1,6.5,26.1,13.4v9.1H50v3H17.1c-6.9,0-13,4.2-14.9,12.1C0,46.7-.1,52.4,2.2,61.8,3.9,68.9,8,73.9,14.9,73.9h8.2V63A15.12,15.12,0,0,1,38,48.2H61.8A12,12,0,0,0,73.7,36.1V13.4C73.7,6.9,68.2,2.1,61.8,1A74.06,74.06,0,0,0,49.4,0ZM36.5,7.3A4.55,4.55,0,1,1,32,11.9,4.57,4.57,0,0,1,36.5,7.3Z" style="fill:url(#a)"/><path d="M76.7,25.5V36.1A15.31,15.31,0,0,1,61.8,51.2H38A12.17,12.17,0,0,0,26.1,63.3V86c0,6.5,5.6,10.3,11.9,12.1a40.16,40.16,0,0,0,23.8,0c6-1.7,11.9-5.2,11.9-12.1V77H49.9V74H85.6c6.9,0,9.5-4.8,11.9-12.1,2.5-7.5,2.4-14.7,0-24.2-1.7-6.9-5-12.1-11.9-12.1ZM63.3,83a4.48,4.48,0,0,1,4.5,4.5,4.57,4.57,0,0,1-4.5,4.6,4.5,4.5,0,0,1-4.5-4.6A4.69,4.69,0,0,1,63.3,83Z" style="fill:url(#b)"/></svg>